<svg width="20" height="27" viewBox="0 0 20 27" fill="none" xmlns="http://www.w3.org/2000/svg">
<path d="M20 6.88352V21.4281C20 22.7812 19.6708 24.0789 19.0847 25.0357C18.4987 25.9925 17.7038 26.53 16.875 26.53H3.125C2.2962 26.53 1.50134 25.9925 0.915291 25.0357C0.32924 24.0789 0 22.7812 0 21.4281V6.88352L9.6825 16.1853C9.77869 16.278 9.88833 16.3268 10 16.3268C10.1117 16.3268 10.2213 16.278 10.3175 16.1853L20 6.88352ZM16.875 6.31673e-08C17.6439 -0.000197375 18.3859 0.462452 18.959 1.29944C19.5321 2.13643 19.8961 3.28899 19.9813 4.53663L10 14.1221L0.0187501 4.53663C0.103948 3.28899 0.467905 2.13643 1.04099 1.29944C1.61408 0.462452 2.35607 -0.000197375 3.125 6.31673e-08H16.875Z" fill="white"/>
</svg>
