<svg width="40" height="39" viewBox="0 0 40 39" fill="none" xmlns="http://www.w3.org/2000/svg">
<path fill-rule="evenodd" clip-rule="evenodd" d="M11.7545 -0.88C13.8873 -0.978182 14.5673 -1 20 -1C25.4327 -1 26.1127 -0.976364 28.2436 -0.88C30.3745 -0.783636 31.8291 -0.443636 33.1018 0.049091C34.4345 0.552727 35.6436 1.34 36.6436 2.35818C37.6618 3.35636 38.4473 4.56364 38.9491 5.89818C39.4436 7.17091 39.7818 8.62546 39.88 10.7527C39.9782 12.8891 40 13.5691 40 19C40 24.4327 39.9764 25.1127 39.88 27.2455C39.7836 29.3727 39.4436 30.8273 38.9491 32.1C38.4473 33.4347 37.6605 34.644 36.6436 35.6436C35.6436 36.6618 34.4345 37.4473 33.1018 37.9491C31.8291 38.4436 30.3745 38.7818 28.2473 38.88C26.1127 38.9782 25.4327 39 20 39C14.5673 39 13.8873 38.9764 11.7545 38.88C9.62727 38.7836 8.17273 38.4436 6.9 37.9491C5.56531 37.4472 4.35604 36.6605 3.35636 35.6436C2.33887 34.6449 1.55148 33.4362 1.04909 32.1018C0.556364 30.8291 0.218182 29.3745 0.12 27.2473C0.0218182 25.1109 0 24.4309 0 19C0 13.5673 0.0236363 12.8873 0.12 10.7564C0.216364 8.62545 0.556364 7.17091 1.04909 5.89818C1.55222 4.56378 2.34022 3.35512 3.35818 2.35636C4.35644 1.33909 5.56449 0.551715 6.89818 0.049091C8.17091 -0.443636 9.62546 -0.781818 11.7527 -0.88H11.7545ZM28.0818 2.72C25.9727 2.62364 25.34 2.60364 20 2.60364C14.66 2.60364 14.0273 2.62364 11.9182 2.72C9.96727 2.80909 8.90909 3.13455 8.20364 3.40909C7.27091 3.77273 6.60364 4.20364 5.90364 4.90364C5.24008 5.54919 4.72942 6.33506 4.40909 7.20364C4.13455 7.90909 3.80909 8.96727 3.72 10.9182C3.62364 13.0273 3.60364 13.66 3.60364 19C3.60364 24.34 3.62364 24.9727 3.72 27.0818C3.80909 29.0327 4.13455 30.0909 4.40909 30.7964C4.72909 31.6636 5.24 32.4509 5.90364 33.0964C6.54909 33.76 7.33636 34.2709 8.20364 34.5909C8.90909 34.8655 9.96727 35.1909 11.9182 35.28C14.0273 35.3764 14.6582 35.3964 20 35.3964C25.3418 35.3964 25.9727 35.3764 28.0818 35.28C30.0327 35.1909 31.0909 34.8655 31.7964 34.5909C32.7291 34.2273 33.3964 33.7964 34.0964 33.0964C34.76 32.4509 35.2709 31.6636 35.5909 30.7964C35.8655 30.0909 36.1909 29.0327 36.28 27.0818C36.3764 24.9727 36.3964 24.34 36.3964 19C36.3964 13.66 36.3764 13.0273 36.28 10.9182C36.1909 8.96727 35.8655 7.90909 35.5909 7.20364C35.2273 6.27091 34.7964 5.60364 34.0964 4.90364C33.4508 4.24013 32.6649 3.72947 31.7964 3.40909C31.0909 3.13455 30.0327 2.80909 28.0818 2.72V2.72ZM17.4455 25.1655C18.8721 25.7593 20.4607 25.8395 21.9399 25.3922C23.4191 24.945 24.6971 23.998 25.5557 22.7132C26.4142 21.4283 26.8001 19.8852 26.6474 18.3475C26.4946 16.8097 25.8127 15.3727 24.7182 14.2818C24.0204 13.5845 23.1768 13.0506 22.2479 12.7184C21.319 12.3863 20.3281 12.2643 19.3464 12.3611C18.3647 12.4579 17.4166 12.7712 16.5706 13.2784C15.7245 13.7856 15.0014 14.4741 14.4533 15.2943C13.9052 16.1145 13.5458 17.046 13.4009 18.0217C13.2561 18.9975 13.3294 19.9933 13.6155 20.9373C13.9017 21.8813 14.3936 22.7502 15.0559 23.4813C15.7181 24.2124 16.5342 24.7876 17.4455 25.1655ZM12.7309 11.7309C13.6855 10.7763 14.8188 10.0191 16.066 9.50248C17.3132 8.98585 18.65 8.71995 20 8.71995C21.35 8.71995 22.6868 8.98585 23.934 9.50247C25.1812 10.0191 26.3145 10.7763 27.2691 11.7309C28.2237 12.6855 28.9809 13.8188 29.4975 15.066C30.0141 16.3132 30.28 17.65 30.28 19C30.28 20.35 30.0141 21.6868 29.4975 22.934C28.9809 24.1812 28.2237 25.3145 27.2691 26.2691C25.3412 28.197 22.7264 29.28 20 29.28C17.2736 29.28 14.6588 28.197 12.7309 26.2691C10.803 24.3412 9.71995 21.7264 9.71995 19C9.71995 16.2736 10.803 13.6588 12.7309 11.7309V11.7309ZM32.56 10.2509C32.7966 10.0278 32.9859 9.75942 33.1169 9.46177C33.2479 9.16412 33.3178 8.84322 33.3226 8.51805C33.3273 8.19289 33.2668 7.87009 33.1445 7.56875C33.0223 7.2674 32.8408 6.99366 32.6108 6.76371C32.3809 6.53376 32.1071 6.35229 31.8058 6.23003C31.5045 6.10778 31.1817 6.04723 30.8565 6.05197C30.5313 6.05671 30.2104 6.12664 29.9128 6.25763C29.6151 6.38862 29.3468 6.57799 29.1236 6.81455C28.6897 7.2746 28.4521 7.88568 28.4613 8.51805C28.4705 9.15043 28.7258 9.75433 29.173 10.2015C29.6202 10.6487 30.2241 10.9041 30.8565 10.9133C31.4889 10.9225 32.0999 10.6849 32.56 10.2509V10.2509Z" fill="white"/>
</svg>
