<svg width="40" height="27" viewBox="0 0 40 27" fill="none" xmlns="http://www.w3.org/2000/svg">
<path d="M39.1624 4.18603C38.936 3.3782 38.4948 2.64682 37.8859 2.06965C37.2598 1.47474 36.4924 1.04918 35.6562 0.833153C32.5267 0.00826352 19.9883 0.0082637 19.9883 0.0082637C14.7613 -0.0512072 9.53546 0.210361 4.34044 0.791491C3.50421 1.02348 2.73827 1.45855 2.11074 2.05799C1.49416 2.65124 1.04755 3.38281 0.814252 4.18437C0.253816 7.20354 -0.0184822 10.2691 0.0010285 13.3398C-0.0189688 16.4077 0.252661 19.4723 0.814252 22.4952C1.04255 23.2935 1.4875 24.0217 2.10575 24.61C2.724 25.1982 3.49389 25.6232 4.34044 25.8481C7.51168 26.6713 19.9883 26.6713 19.9883 26.6713C25.2221 26.7309 30.4545 26.4693 35.6562 25.8881C36.4924 25.6721 37.2598 25.2465 37.8859 24.6516C38.4946 24.0746 38.9352 23.3431 39.1608 22.5352C39.7358 19.5172 40.0154 16.4504 39.9956 13.3781C40.0389 10.2929 39.7596 7.21157 39.1624 4.18437V4.18603ZM16.0022 19.0457V7.63557L26.4341 13.3415L16.0022 19.0457Z" fill="white"/>
</svg>
